<?xml version="1.0" standalone="no"?>
<!DOCTYPE svg PUBLIC "-//W3C//DTD SVG 20010904//EN"
 "http://www.w3.org/TR/2001/REC-SVG-20010904/DTD/svg10.dtd">
<svg version="1.0" xmlns="http://www.w3.org/2000/svg"
 width="700.000000pt" height="700.000000pt" viewBox="0 0 700.000000 700.000000"
 preserveAspectRatio="xMidYMid meet">
<metadata>
Created by potrace 1.11, written by Peter Selinger 2001-2013
</metadata>
<g transform="translate(0.000000,700.000000) scale(0.100000,-0.100000)"
fill="#000000" stroke="none">
<path d="M1137 6986 c-26 -7 -49 -14 -50 -15 -1 -1 -12 -4 -25 -8 -68 -17
-276 -138 -354 -205 -14 -13 -46 -39 -70 -58 -69 -55 -298 -288 -363 -370 -33
-41 -62 -77 -65 -80 -15 -15 -103 -156 -128 -206 -74 -146 -97 -299 -65 -421
45 -173 233 -361 508 -507 107 -57 368 -178 543 -252 86 -37 175 -74 197 -84
22 -10 85 -37 140 -60 196 -83 480 -223 593 -292 363 -222 558 -441 633 -713
18 -63 23 -107 23 -205 0 -125 -2 -143 -24 -235 -17 -72 -91 -221 -144 -291
-86 -114 -171 -194 -356 -332 -60 -45 -281 -169 -417 -233 -200 -95 -187 -90
-535 -238 -625 -267 -834 -380 -994 -538 -134 -134 -187 -255 -179 -412 10
-221 152 -458 460 -766 240 -241 449 -386 630 -440 63 -19 214 -25 274 -12
114 26 258 135 364 277 54 71 157 241 192 316 39 84 98 210 128 274 13 30 62
143 107 250 84 201 99 235 144 333 14 32 26 60 26 64 0 19 219 443 271 523
276 432 560 616 934 605 365 -11 648 -230 932 -720 36 -62 193 -379 193 -390
0 -2 13 -32 29 -67 16 -35 75 -171 131 -303 101 -237 112 -263 193 -440 158
-345 314 -561 477 -660 80 -49 132 -65 225 -72 229 -16 491 131 820 461 257
258 407 480 452 670 9 40 10 179 1 220 -4 22 -25 75 -45 116 -48 98 -172 224
-303 309 -52 33 -99 65 -105 69 -22 17 -348 173 -495 236 -85 37 -164 71 -175
76 -11 5 -94 41 -185 79 -168 70 -444 198 -535 246 -444 237 -705 504 -777
794 -23 96 -30 261 -15 368 23 166 132 361 287 513 217 212 478 359 1160 650
647 276 852 387 1014 547 138 137 189 254 181 417 -11 215 -160 464 -459 761
-264 262 -479 407 -676 453 -60 14 -215 6 -270 -15 -150 -55 -299 -201 -430
-423 -33 -55 -170 -325 -170 -334 0 -2 -15 -37 -34 -78 -18 -40 -84 -192 -146
-338 -138 -326 -132 -314 -246 -545 -268 -544 -515 -798 -869 -893 -75 -20
-297 -22 -375 -4 -182 44 -331 131 -480 283 -64 64 -128 141 -156 184 -10 17
-21 32 -24 35 -7 6 -111 173 -143 229 -71 126 -178 360 -333 725 -63 149 -124
291 -136 316 -11 25 -36 79 -55 120 -195 427 -373 647 -583 723 -68 24 -206
30 -273 13z"/>
</g>
</svg>
