<svg width="192" height="192" viewBox="0 0 192 192" fill="none" xmlns="http://www.w3.org/2000/svg">
<rect width="192" height="192" rx="20" fill="#131313"/>
<path d="M48.8 107.163C47.9893 107.163 47.36 106.939 46.912 106.491C46.4853 106.043 46.272 105.392 46.272 104.539V86.907C46.272 86.075 46.496 85.435 46.944 84.987C47.392 84.539 48.032 84.315 48.864 84.315H59.808C60.448 84.315 60.928 84.4857 61.248 84.827C61.5893 85.147 61.76 85.6163 61.76 86.235C61.76 86.875 61.5893 87.3657 61.248 87.707C60.928 88.027 60.448 88.187 59.808 88.187H51.232V93.691H59.104C59.744 93.691 60.2347 93.8617 60.576 94.203C60.9173 94.523 61.088 94.9923 61.088 95.611C61.088 96.2297 60.9173 96.7097 60.576 97.051C60.2347 97.3923 59.744 97.563 59.104 97.563H51.232V104.539C51.232 106.288 50.4213 107.163 48.8 107.163Z" fill="#2872FF"/>
<path d="M67.8193 107.131C67.0299 107.131 66.4219 106.907 65.9953 106.459C65.5899 105.99 65.3873 105.339 65.3873 104.507V93.563C65.3873 92.7097 65.5899 92.059 65.9953 91.611C66.4219 91.1417 67.0299 90.907 67.8193 90.907C68.5873 90.907 69.1739 91.1417 69.5793 91.611C70.0059 92.059 70.2193 92.7097 70.2193 93.563V104.507C70.2193 105.339 70.0166 105.99 69.6113 106.459C69.2059 106.907 68.6086 107.131 67.8193 107.131ZM67.8193 88.283C66.9233 88.283 66.2299 88.0803 65.7393 87.675C65.2699 87.2483 65.0353 86.651 65.0353 85.883C65.0353 85.0937 65.2699 84.4963 65.7393 84.091C66.2299 83.6643 66.9233 83.451 67.8193 83.451C68.7153 83.451 69.3979 83.6643 69.8673 84.091C70.3366 84.4963 70.5713 85.0937 70.5713 85.883C70.5713 86.651 70.3366 87.2483 69.8673 87.675C69.3979 88.0803 68.7153 88.283 67.8193 88.283ZM76.3818 107.163C75.5924 107.163 74.9844 106.95 74.5578 106.523C74.1524 106.096 73.9498 105.488 73.9498 104.699V93.339C73.9498 92.5497 74.1524 91.9523 74.5578 91.547C74.9844 91.1203 75.5711 90.907 76.3177 90.907C77.0858 90.907 77.6724 91.1203 78.0778 91.547C78.4831 91.9523 78.6858 92.5497 78.6858 93.339V95.163L78.3338 94.107C78.8244 93.0617 79.5498 92.2617 80.5098 91.707C81.4911 91.131 82.6004 90.843 83.8378 90.843C85.0964 90.843 86.1311 91.0883 86.9418 91.579C87.7524 92.0483 88.3604 92.7737 88.7658 93.755C89.1711 94.715 89.3738 95.9417 89.3738 97.435V104.699C89.3738 105.488 89.1604 106.096 88.7338 106.523C88.3284 106.95 87.7311 107.163 86.9418 107.163C86.1738 107.163 85.5764 106.95 85.1498 106.523C84.7444 106.096 84.5418 105.488 84.5418 104.699V97.659C84.5418 96.571 84.3391 95.7923 83.9338 95.323C83.5498 94.8323 82.9524 94.587 82.1418 94.587C81.1178 94.587 80.2964 94.907 79.6778 95.547C79.0804 96.187 78.7818 97.0403 78.7818 98.107V104.699C78.7818 106.342 77.9818 107.163 76.3818 107.163ZM98.293 107.227C97.141 107.227 96.1063 107.003 95.189 106.555C94.2717 106.107 93.557 105.499 93.045 104.731C92.533 103.963 92.277 103.099 92.277 102.139C92.277 100.987 92.5757 100.08 93.173 99.419C93.7703 98.7363 94.741 98.2563 96.085 97.979C97.429 97.6803 99.2103 97.531 101.429 97.531H103.125V100.027H101.461C100.373 100.027 99.4877 100.091 98.805 100.219C98.1437 100.326 97.6637 100.518 97.365 100.795C97.0877 101.072 96.949 101.456 96.949 101.947C96.949 102.544 97.1517 103.035 97.557 103.419C97.9837 103.803 98.5917 103.995 99.381 103.995C99.9997 103.995 100.544 103.856 101.013 103.579C101.504 103.28 101.888 102.886 102.165 102.395C102.442 101.883 102.581 101.307 102.581 100.667V96.987C102.581 96.0483 102.368 95.387 101.941 95.003C101.514 94.5977 100.789 94.395 99.765 94.395C99.189 94.395 98.5597 94.4697 97.877 94.619C97.2157 94.747 96.4797 94.971 95.669 95.291C95.1997 95.5043 94.7837 95.5577 94.421 95.451C94.0583 95.323 93.781 95.1097 93.589 94.811C93.397 94.491 93.301 94.1497 93.301 93.787C93.301 93.403 93.4077 93.0403 93.621 92.699C93.8343 92.3363 94.1863 92.0697 94.677 91.899C95.6797 91.4937 96.6183 91.2163 97.493 91.067C98.389 90.9177 99.2103 90.843 99.957 90.843C101.6 90.843 102.944 91.0883 103.989 91.579C105.056 92.0483 105.856 92.7843 106.389 93.787C106.922 94.7683 107.189 96.0377 107.189 97.595V104.699C107.189 105.488 106.997 106.096 106.613 106.523C106.229 106.95 105.674 107.163 104.949 107.163C104.224 107.163 103.658 106.95 103.253 106.523C102.869 106.096 102.677 105.488 102.677 104.699V103.515L102.901 103.707C102.773 104.432 102.496 105.062 102.069 105.595C101.664 106.107 101.141 106.512 100.501 106.811C99.861 107.088 99.125 107.227 98.293 107.227ZM113.226 112.923C112.436 112.923 111.828 112.71 111.402 112.283C110.996 111.878 110.794 111.27 110.794 110.459V93.339C110.794 92.5497 110.996 91.9523 111.402 91.547C111.828 91.1203 112.415 90.907 113.161 90.907C113.951 90.907 114.548 91.1203 114.954 91.547C115.359 91.9523 115.562 92.5497 115.562 93.339V95.515L115.21 94.267C115.53 93.243 116.17 92.4217 117.13 91.803C118.111 91.163 119.231 90.843 120.49 90.843C121.855 90.843 123.05 91.1737 124.074 91.835C125.119 92.4963 125.93 93.435 126.506 94.651C127.082 95.867 127.37 97.3177 127.37 99.003C127.37 100.688 127.082 102.15 126.506 103.387C125.93 104.624 125.13 105.574 124.106 106.235C123.082 106.896 121.876 107.227 120.49 107.227C119.252 107.227 118.154 106.928 117.194 106.331C116.234 105.712 115.583 104.912 115.242 103.931H115.626V110.459C115.626 111.27 115.412 111.878 114.986 112.283C114.58 112.71 113.994 112.923 113.226 112.923ZM119.05 103.611C119.732 103.611 120.33 103.44 120.842 103.099C121.375 102.758 121.78 102.256 122.058 101.595C122.356 100.912 122.506 100.048 122.506 99.003C122.506 97.4457 122.186 96.3043 121.546 95.579C120.906 94.8323 120.074 94.459 119.05 94.459C118.367 94.459 117.759 94.619 117.226 94.939C116.714 95.259 116.308 95.7603 116.01 96.443C115.711 97.1043 115.562 97.9577 115.562 99.003C115.562 100.56 115.882 101.723 116.522 102.491C117.162 103.238 118.004 103.611 119.05 103.611ZM132.757 112.923C131.967 112.923 131.359 112.71 130.933 112.283C130.527 111.878 130.325 111.27 130.325 110.459V93.339C130.325 92.5497 130.527 91.9523 130.933 91.547C131.359 91.1203 131.946 90.907 132.693 90.907C133.482 90.907 134.079 91.1203 134.485 91.547C134.89 91.9523 135.093 92.5497 135.093 93.339V95.515L134.741 94.267C135.061 93.243 135.701 92.4217 136.661 91.803C137.642 91.163 138.762 90.843 140.021 90.843C141.386 90.843 142.581 91.1737 143.605 91.835C144.65 92.4963 145.461 93.435 146.037 94.651C146.613 95.867 146.901 97.3177 146.901 99.003C146.901 100.688 146.613 102.15 146.037 103.387C145.461 104.624 144.661 105.574 143.637 106.235C142.613 106.896 141.407 107.227 140.021 107.227C138.783 107.227 137.685 106.928 136.725 106.331C135.765 105.712 135.114 104.912 134.773 103.931H135.157V110.459C135.157 111.27 134.943 111.878 134.517 112.283C134.111 112.71 133.525 112.923 132.757 112.923ZM138.581 103.611C139.263 103.611 139.861 103.44 140.373 103.099C140.906 102.758 141.311 102.256 141.589 101.595C141.887 100.912 142.037 100.048 142.037 99.003C142.037 97.4457 141.717 96.3043 141.077 95.579C140.437 94.8323 139.605 94.459 138.581 94.459C137.898 94.459 137.29 94.619 136.757 94.939C136.245 95.259 135.839 95.7603 135.541 96.443C135.242 97.1043 135.093 97.9577 135.093 99.003C135.093 100.56 135.413 101.723 136.053 102.491C136.693 103.238 137.535 103.611 138.581 103.611Z" fill="white"/>
</svg>
