<svg width="263" height="48" viewBox="0 0 263 48" fill="none" xmlns="http://www.w3.org/2000/svg">
<path d="M24.6809 47.1C23.1609 47.1 21.9809 46.68 21.1409 45.84C20.3409 45.04 19.9409 43.88 19.9409 42.36V39.36L22.2209 41.76H20.6009C16.4409 41.76 12.8409 41.06 9.80086 39.66C6.80086 38.22 4.48086 36.16 2.84086 33.48C1.20086 30.76 0.380859 27.44 0.380859 23.52C0.380859 20.56 0.820859 17.96 1.70086 15.72C2.62086 13.44 3.94086 11.54 5.66086 10.02C7.42086 8.46 9.56086 7.28 12.0809 6.48C14.6009 5.68 17.4409 5.28 20.6009 5.28H22.2209L19.9409 7.68V5.04C19.9409 3.48 20.3409 2.3 21.1409 1.5C21.9809 0.699997 23.1609 0.299996 24.6809 0.299996C26.1609 0.299996 27.3009 0.699997 28.1009 1.5C28.9009 2.3 29.3009 3.48 29.3009 5.04V7.68L27.0209 5.28H28.6409C32.9209 5.28 36.5609 5.98 39.5609 7.38C42.5609 8.78 44.8609 10.84 46.4609 13.56C48.0609 16.24 48.8609 19.56 48.8609 23.52C48.8609 26.44 48.4009 29.04 47.4809 31.32C46.5609 33.6 45.2209 35.52 43.4609 37.08C41.7009 38.6 39.5809 39.76 37.1009 40.56C34.6209 41.36 31.8009 41.76 28.6409 41.76H27.0209L29.3009 39.36V42.36C29.3009 43.88 28.9009 45.04 28.1009 45.84C27.3409 46.68 26.2009 47.1 24.6809 47.1ZM20.0009 36.24V10.8L21.9209 12.3H19.7609C18.3609 12.3 17.0409 12.52 15.8009 12.96C14.6009 13.4 13.5409 14.08 12.6209 15C11.7409 15.92 11.0609 17.1 10.5809 18.54C10.1009 19.94 9.86086 21.6 9.86086 23.52C9.86086 26.04 10.3009 28.14 11.1809 29.82C12.0609 31.46 13.2409 32.7 14.7209 33.54C16.2409 34.34 17.9209 34.74 19.7609 34.74H21.9209L20.0009 36.24ZM29.2409 36.24L27.3809 34.74H29.4809C30.8809 34.74 32.1809 34.52 33.3809 34.08C34.5809 33.64 35.6209 32.96 36.5009 32.04C37.4209 31.08 38.1209 29.9 38.6009 28.5C39.1209 27.06 39.3809 25.4 39.3809 23.52C39.3809 20.92 38.9609 18.8 38.1209 17.16C37.2809 15.52 36.1009 14.3 34.5809 13.5C33.1009 12.7 31.4009 12.3 29.4809 12.3H27.3809L29.2409 10.8V36.24Z" fill="#2872FF"/>
<path d="M60.033 45.54C59.113 45.54 58.333 45.36 57.693 45C57.053 44.64 56.573 44.12 56.253 43.44C55.973 42.72 55.833 41.8 55.833 40.68V19.38C55.833 17.98 56.193 16.92 56.913 16.2C57.633 15.44 58.633 15.06 59.913 15.06C61.233 15.06 62.233 15.44 62.913 16.2C63.633 16.92 63.993 17.98 63.993 19.38V35.52H62.373L75.633 17.94C76.113 17.3 76.733 16.66 77.493 16.02C78.253 15.38 79.333 15.06 80.733 15.06C81.653 15.06 82.413 15.24 83.0131 15.6C83.653 15.92 84.113 16.44 84.3931 17.16C84.713 17.84 84.873 18.74 84.873 19.86V41.22C84.873 42.58 84.513 43.64 83.793 44.4C83.113 45.16 82.133 45.54 80.853 45.54C79.493 45.54 78.453 45.16 77.733 44.4C77.053 43.64 76.713 42.58 76.713 41.22V25.02H78.393L65.073 42.6C64.593 43.28 63.973 43.94 63.213 44.58C62.493 45.22 61.433 45.54 60.033 45.54ZM97.3657 45.54C95.8857 45.54 94.7457 45.14 93.9457 44.34C93.1857 43.54 92.8057 42.4 92.8057 40.92V19.62C92.8057 18.1 93.1857 16.96 93.9457 16.2C94.7457 15.44 95.8857 15.06 97.3657 15.06C98.8057 15.06 99.9057 15.44 100.666 16.2C101.466 16.96 101.866 18.1 101.866 19.62V26.46H113.086V19.62C113.086 18.1 113.466 16.96 114.226 16.2C114.986 15.44 116.106 15.06 117.586 15.06C119.026 15.06 120.146 15.44 120.946 16.2C121.746 16.96 122.146 18.1 122.146 19.62V40.92C122.146 42.4 121.746 43.54 120.946 44.34C120.146 45.14 119.026 45.54 117.586 45.54C116.106 45.54 114.986 45.14 114.226 44.34C113.466 43.54 113.086 42.4 113.086 40.92V33.48H101.866V40.92C101.866 42.4 101.486 43.54 100.726 44.34C99.9657 45.14 98.8457 45.54 97.3657 45.54ZM139.973 45.66C137.813 45.66 135.873 45.24 134.153 44.4C132.433 43.56 131.093 42.42 130.133 40.98C129.173 39.54 128.693 37.92 128.693 36.12C128.693 33.96 129.253 32.26 130.373 31.02C131.493 29.74 133.313 28.84 135.833 28.32C138.353 27.76 141.693 27.48 145.853 27.48H149.033V32.16H145.913C143.873 32.16 142.213 32.28 140.933 32.52C139.693 32.72 138.793 33.08 138.233 33.6C137.713 34.12 137.453 34.84 137.453 35.76C137.453 36.88 137.833 37.8 138.593 38.52C139.393 39.24 140.533 39.6 142.013 39.6C143.173 39.6 144.193 39.34 145.073 38.82C145.993 38.26 146.713 37.52 147.233 36.6C147.753 35.64 148.013 34.56 148.013 33.36V26.46C148.013 24.7 147.613 23.46 146.813 22.74C146.013 21.98 144.653 21.6 142.733 21.6C141.653 21.6 140.473 21.74 139.193 22.02C137.953 22.26 136.573 22.68 135.053 23.28C134.173 23.68 133.393 23.78 132.713 23.58C132.033 23.34 131.513 22.94 131.153 22.38C130.793 21.78 130.613 21.14 130.613 20.46C130.613 19.74 130.813 19.06 131.213 18.42C131.613 17.74 132.273 17.24 133.193 16.92C135.073 16.16 136.833 15.64 138.473 15.36C140.153 15.08 141.693 14.94 143.093 14.94C146.173 14.94 148.693 15.4 150.653 16.32C152.653 17.2 154.153 18.58 155.153 20.46C156.153 22.3 156.653 24.68 156.653 27.6V40.92C156.653 42.4 156.293 43.54 155.573 44.34C154.853 45.14 153.813 45.54 152.453 45.54C151.093 45.54 150.033 45.14 149.273 44.34C148.553 43.54 148.193 42.4 148.193 40.92V38.7L148.613 39.06C148.373 40.42 147.853 41.6 147.053 42.6C146.293 43.56 145.313 44.32 144.113 44.88C142.913 45.4 141.533 45.66 139.973 45.66ZM168.967 45.54C167.487 45.54 166.347 45.14 165.547 44.34C164.787 43.54 164.407 42.4 164.407 40.92V20.64C164.407 19 164.827 17.74 165.667 16.86C166.547 15.98 167.807 15.54 169.447 15.54H188.467C190.107 15.54 191.367 15.98 192.247 16.86C193.127 17.74 193.567 19 193.567 20.64V40.92C193.567 42.4 193.167 43.54 192.367 44.34C191.567 45.14 190.447 45.54 189.007 45.54C187.527 45.54 186.407 45.14 185.647 44.34C184.887 43.54 184.507 42.4 184.507 40.92V22.56H173.467V40.92C173.467 42.4 173.087 43.54 172.327 44.34C171.567 45.14 170.447 45.54 168.967 45.54ZM205.999 45.54C204.519 45.54 203.379 45.14 202.579 44.34C201.819 43.54 201.439 42.4 201.439 40.92V19.68C201.439 18.2 201.819 17.06 202.579 16.26C203.379 15.46 204.519 15.06 205.999 15.06C207.439 15.06 208.539 15.46 209.299 16.26C210.099 17.06 210.499 18.2 210.499 19.68V26.52H214.039L220.759 17.16C221.399 16.24 222.139 15.64 222.979 15.36C223.859 15.08 224.699 15.06 225.499 15.3C226.299 15.54 226.959 15.98 227.479 16.62C227.999 17.22 228.279 17.94 228.319 18.78C228.399 19.62 228.099 20.52 227.419 21.48L220.939 30.6L219.139 27.66C220.219 27.78 221.199 28.1 222.079 28.62C222.959 29.14 223.759 29.82 224.479 30.66C225.199 31.46 225.879 32.44 226.519 33.6L229.699 39.42C230.259 40.42 230.439 41.36 230.239 42.24C230.079 43.08 229.659 43.78 228.979 44.34C228.339 44.9 227.579 45.24 226.699 45.36C225.819 45.52 224.959 45.42 224.119 45.06C223.279 44.7 222.579 44 222.019 42.96L218.359 36.48C217.959 35.68 217.539 35.06 217.099 34.62C216.659 34.18 216.159 33.88 215.599 33.72C215.079 33.56 214.459 33.48 213.739 33.48H210.499V40.92C210.499 42.4 210.099 43.54 209.299 44.34C208.539 45.14 207.439 45.54 205.999 45.54ZM246.145 45.66C243.985 45.66 242.045 45.24 240.325 44.4C238.605 43.56 237.265 42.42 236.305 40.98C235.345 39.54 234.865 37.92 234.865 36.12C234.865 33.96 235.425 32.26 236.545 31.02C237.665 29.74 239.485 28.84 242.005 28.32C244.525 27.76 247.865 27.48 252.025 27.48H255.205V32.16H252.085C250.045 32.16 248.385 32.28 247.105 32.52C245.865 32.72 244.965 33.08 244.405 33.6C243.885 34.12 243.625 34.84 243.625 35.76C243.625 36.88 244.005 37.8 244.765 38.52C245.565 39.24 246.705 39.6 248.185 39.6C249.345 39.6 250.365 39.34 251.245 38.82C252.165 38.26 252.885 37.52 253.405 36.6C253.925 35.64 254.185 34.56 254.185 33.36V26.46C254.185 24.7 253.785 23.46 252.985 22.74C252.185 21.98 250.825 21.6 248.905 21.6C247.825 21.6 246.645 21.74 245.365 22.02C244.125 22.26 242.745 22.68 241.225 23.28C240.345 23.68 239.565 23.78 238.885 23.58C238.205 23.34 237.685 22.94 237.325 22.38C236.965 21.78 236.785 21.14 236.785 20.46C236.785 19.74 236.985 19.06 237.385 18.42C237.785 17.74 238.445 17.24 239.365 16.92C241.245 16.16 243.005 15.64 244.645 15.36C246.325 15.08 247.865 14.94 249.265 14.94C252.345 14.94 254.865 15.4 256.825 16.32C258.825 17.2 260.325 18.58 261.325 20.46C262.325 22.3 262.825 24.68 262.825 27.6V40.92C262.825 42.4 262.465 43.54 261.745 44.34C261.025 45.14 259.985 45.54 258.625 45.54C257.265 45.54 256.205 45.14 255.445 44.34C254.725 43.54 254.365 42.4 254.365 40.92V38.7L254.785 39.06C254.545 40.42 254.025 41.6 253.225 42.6C252.465 43.56 251.485 44.32 250.285 44.88C249.085 45.4 247.705 45.66 246.145 45.66Z" fill="white"/>
</svg>
