<svg width="189" height="56" viewBox="0 0 189 56" fill="none" xmlns="http://www.w3.org/2000/svg">
<path d="M5 44.54C3.48 44.54 2.3 44.12 1.46 43.28C0.66 42.44 0.26 41.22 0.26 39.62V6.56C0.26 5 0.68 3.8 1.52 2.96C2.36 2.12 3.56 1.7 5.12 1.7H25.64C26.84 1.7 27.74 2.02 28.34 2.66C28.98 3.26 29.3 4.14 29.3 5.3C29.3 6.5 28.98 7.42 28.34 8.06C27.74 8.66 26.84 8.96 25.64 8.96H9.56V19.28H24.32C25.52 19.28 26.44 19.6 27.08 20.24C27.72 20.84 28.04 21.72 28.04 22.88C28.04 24.04 27.72 24.94 27.08 25.58C26.44 26.22 25.52 26.54 24.32 26.54H9.56V39.62C9.56 42.9 8.04 44.54 5 44.54Z" fill="#2872FF"/>
<path d="M40.6611 44.48C39.1811 44.48 38.0411 44.06 37.2411 43.22C36.4811 42.34 36.1011 41.12 36.1011 39.56V19.04C36.1011 17.44 36.4811 16.22 37.2411 15.38C38.0411 14.5 39.1811 14.06 40.6611 14.06C42.1011 14.06 43.2011 14.5 43.9611 15.38C44.7611 16.22 45.1611 17.44 45.1611 19.04V39.56C45.1611 41.12 44.7811 42.34 44.0211 43.22C43.2611 44.06 42.1411 44.48 40.6611 44.48ZM40.6611 9.14C38.9811 9.14 37.6811 8.76 36.7611 8C35.8811 7.2 35.4411 6.08 35.4411 4.64C35.4411 3.16 35.8811 2.04 36.7611 1.28C37.6811 0.479998 38.9811 0.0799968 40.6611 0.0799968C42.3411 0.0799968 43.6211 0.479998 44.5011 1.28C45.3811 2.04 45.8211 3.16 45.8211 4.64C45.8211 6.08 45.3811 7.2 44.5011 8C43.6211 8.76 42.3411 9.14 40.6611 9.14ZM56.7158 44.54C55.2358 44.54 54.0958 44.14 53.2958 43.34C52.5358 42.54 52.1558 41.4 52.1558 39.92V18.62C52.1558 17.14 52.5358 16.02 53.2958 15.26C54.0958 14.46 55.1958 14.06 56.5958 14.06C58.0358 14.06 59.1358 14.46 59.8958 15.26C60.6558 16.02 61.0358 17.14 61.0358 18.62V22.04L60.3758 20.06C61.2958 18.1 62.6558 16.6 64.4558 15.56C66.2958 14.48 68.3758 13.94 70.6958 13.94C73.0558 13.94 74.9958 14.4 76.5158 15.32C78.0358 16.2 79.1758 17.56 79.9358 19.4C80.6958 21.2 81.0758 23.5 81.0758 26.3V39.92C81.0758 41.4 80.6758 42.54 79.8758 43.34C79.1158 44.14 77.9958 44.54 76.5158 44.54C75.0758 44.54 73.9558 44.14 73.1558 43.34C72.3958 42.54 72.0158 41.4 72.0158 39.92V26.72C72.0158 24.68 71.6358 23.22 70.8758 22.34C70.1558 21.42 69.0358 20.96 67.5158 20.96C65.5958 20.96 64.0558 21.56 62.8958 22.76C61.7758 23.96 61.2158 25.56 61.2158 27.56V39.92C61.2158 43 59.7158 44.54 56.7158 44.54ZM97.7994 44.66C95.6394 44.66 93.6994 44.24 91.9794 43.4C90.2594 42.56 88.9194 41.42 87.9594 39.98C86.9994 38.54 86.5194 36.92 86.5194 35.12C86.5194 32.96 87.0794 31.26 88.1994 30.02C89.3194 28.74 91.1394 27.84 93.6594 27.32C96.1794 26.76 99.5194 26.48 103.679 26.48H106.859V31.16H103.739C101.699 31.16 100.039 31.28 98.7594 31.52C97.5194 31.72 96.6194 32.08 96.0594 32.6C95.5394 33.12 95.2794 33.84 95.2794 34.76C95.2794 35.88 95.6594 36.8 96.4194 37.52C97.2194 38.24 98.3594 38.6 99.8394 38.6C100.999 38.6 102.019 38.34 102.899 37.82C103.819 37.26 104.539 36.52 105.059 35.6C105.579 34.64 105.839 33.56 105.839 32.36V25.46C105.839 23.7 105.439 22.46 104.639 21.74C103.839 20.98 102.479 20.6 100.559 20.6C99.4794 20.6 98.2994 20.74 97.0194 21.02C95.7794 21.26 94.3994 21.68 92.8794 22.28C91.9994 22.68 91.2194 22.78 90.5394 22.58C89.8594 22.34 89.3394 21.94 88.9794 21.38C88.6194 20.78 88.4394 20.14 88.4394 19.46C88.4394 18.74 88.6394 18.06 89.0394 17.42C89.4394 16.74 90.0994 16.24 91.0194 15.92C92.8994 15.16 94.6594 14.64 96.2994 14.36C97.9794 14.08 99.5194 13.94 100.919 13.94C103.999 13.94 106.519 14.4 108.479 15.32C110.479 16.2 111.979 17.58 112.979 19.46C113.979 21.3 114.479 23.68 114.479 26.6V39.92C114.479 41.4 114.119 42.54 113.399 43.34C112.679 44.14 111.639 44.54 110.279 44.54C108.919 44.54 107.859 44.14 107.099 43.34C106.379 42.54 106.019 41.4 106.019 39.92V37.7L106.439 38.06C106.199 39.42 105.679 40.6 104.879 41.6C104.119 42.56 103.139 43.32 101.939 43.88C100.739 44.4 99.3594 44.66 97.7994 44.66ZM125.798 55.34C124.318 55.34 123.178 54.94 122.378 54.14C121.618 53.38 121.238 52.24 121.238 50.72V18.62C121.238 17.14 121.618 16.02 122.378 15.26C123.178 14.46 124.278 14.06 125.678 14.06C127.158 14.06 128.278 14.46 129.038 15.26C129.798 16.02 130.178 17.14 130.178 18.62V22.7L129.518 20.36C130.118 18.44 131.318 16.9 133.118 15.74C134.958 14.54 137.058 13.94 139.418 13.94C141.978 13.94 144.218 14.56 146.138 15.8C148.098 17.04 149.618 18.8 150.698 21.08C151.778 23.36 152.318 26.08 152.318 29.24C152.318 32.4 151.778 35.14 150.698 37.46C149.618 39.78 148.118 41.56 146.198 42.8C144.278 44.04 142.018 44.66 139.418 44.66C137.098 44.66 135.038 44.1 133.238 42.98C131.438 41.82 130.218 40.32 129.578 38.48H130.298V50.72C130.298 52.24 129.898 53.38 129.098 54.14C128.338 54.94 127.238 55.34 125.798 55.34ZM136.718 37.88C137.998 37.88 139.118 37.56 140.078 36.92C141.078 36.28 141.838 35.34 142.358 34.1C142.918 32.82 143.198 31.2 143.198 29.24C143.198 26.32 142.598 24.18 141.398 22.82C140.198 21.42 138.638 20.72 136.718 20.72C135.438 20.72 134.298 21.02 133.298 21.62C132.338 22.22 131.578 23.16 131.018 24.44C130.458 25.68 130.178 27.28 130.178 29.24C130.178 32.16 130.778 34.34 131.978 35.78C133.178 37.18 134.758 37.88 136.718 37.88ZM162.419 55.34C160.939 55.34 159.799 54.94 158.999 54.14C158.239 53.38 157.859 52.24 157.859 50.72V18.62C157.859 17.14 158.239 16.02 158.999 15.26C159.799 14.46 160.899 14.06 162.299 14.06C163.779 14.06 164.899 14.46 165.659 15.26C166.419 16.02 166.799 17.14 166.799 18.62V22.7L166.139 20.36C166.739 18.44 167.939 16.9 169.739 15.74C171.579 14.54 173.679 13.94 176.039 13.94C178.599 13.94 180.839 14.56 182.759 15.8C184.719 17.04 186.239 18.8 187.319 21.08C188.399 23.36 188.939 26.08 188.939 29.24C188.939 32.4 188.399 35.14 187.319 37.46C186.239 39.78 184.739 41.56 182.819 42.8C180.899 44.04 178.639 44.66 176.039 44.66C173.719 44.66 171.659 44.1 169.859 42.98C168.059 41.82 166.839 40.32 166.199 38.48H166.919V50.72C166.919 52.24 166.519 53.38 165.719 54.14C164.959 54.94 163.859 55.34 162.419 55.34ZM173.339 37.88C174.619 37.88 175.739 37.56 176.699 36.92C177.699 36.28 178.459 35.34 178.979 34.1C179.539 32.82 179.819 31.2 179.819 29.24C179.819 26.32 179.219 24.18 178.019 22.82C176.819 21.42 175.259 20.72 173.339 20.72C172.059 20.72 170.919 21.02 169.919 21.62C168.959 22.22 168.199 23.16 167.639 24.44C167.079 25.68 166.799 27.28 166.799 29.24C166.799 32.16 167.399 34.34 168.599 35.78C169.799 37.18 171.379 37.88 173.339 37.88Z" fill="white"/>
</svg>
