<?xml version="1.0" standalone="no"?>
<!DOCTYPE svg PUBLIC "-//W3C//DTD SVG 20010904//EN"
 "http://www.w3.org/TR/2001/REC-SVG-20010904/DTD/svg10.dtd">
<svg version="1.0" xmlns="http://www.w3.org/2000/svg"
 width="260.000000pt" height="260.000000pt" viewBox="0 0 260.000000 260.000000"
 preserveAspectRatio="xMidYMid meet">
<metadata>
Created by potrace 1.11, written by Peter Selinger 2001-2013
</metadata>
<g transform="translate(0.000000,260.000000) scale(0.100000,-0.100000)"
fill="#000000" stroke="none">
<path d="M0 1300 l0 -1300 1300 0 1300 0 0 1300 0 1300 -1300 0 -1300 0 0
-1300z m1790 795 l0 -125 -470 0 -470 0 0 -280 0 -280 405 0 405 0 0 -125 0
-125 -405 0 -405 0 0 -395 0 -395 -155 0 -155 0 0 925 0 925 625 0 625 0 0
-125z m-618 -1335 l58 -94 0 97 0 97 30 0 30 0 0 -146 0 -145 -32 3 c-29 3
-38 13 -88 96 l-55 92 -3 -95 c-3 -94 -3 -95 -27 -95 l-25 0 0 146 0 145 27
-3 c22 -2 37 -20 85 -98z m678 55 c0 -18 5 -25 20 -25 15 0 20 -7 20 -25 0
-18 -5 -25 -20 -25 -18 0 -20 -7 -20 -64 0 -56 2 -64 21 -69 30 -8 21 -41 -13
-45 -47 -6 -68 27 -68 108 0 56 -3 70 -15 70 -9 0 -15 9 -15 25 0 16 6 25 15
25 9 0 15 9 15 25 0 21 5 25 30 25 25 0 30 -4 30 -25z m-348 -55 c10 -13 18
-39 18 -61 l0 -39 -65 0 c-68 0 -74 -4 -51 -35 11 -15 21 -17 60 -12 25 4 46
5 46 3 0 -3 3 -11 6 -19 3 -10 -5 -18 -27 -26 -53 -18 -86 -13 -121 18 -29 26
-32 34 -32 86 0 52 3 60 33 87 29 26 39 30 75 25 25 -4 48 -14 58 -27z m118 0
c15 -37 21 -37 42 0 13 23 24 30 48 30 16 0 30 -2 30 -4 0 -3 -14 -28 -32 -55
-34 -56 -33 -59 12 -128 l22 -33 -34 0 c-29 0 -37 5 -49 32 l-16 32 -18 -32
c-16 -26 -26 -32 -52 -32 l-33 0 35 54 c29 46 32 56 21 72 -7 10 -23 36 -35
57 l-23 37 35 0 c29 0 37 -5 47 -30z"/>
<path d="M1400 720 c-10 -18 -8 -20 30 -20 41 0 49 7 28 28 -18 18 -46 14 -58
-8z"/>
</g>
</svg>
