<?xml version="1.0" encoding="iso-8859-1"?>
<!-- Generator: Adobe Illustrator 19.0.0, SVG Export Plug-In . SVG Version: 6.00 Build 0)  -->
<svg version="1.1" id="Layer_1" xmlns="http://www.w3.org/2000/svg" xmlns:xlink="http://www.w3.org/1999/xlink" x="0px" y="0px"
	 viewBox="0 0 512.003 512.003" style="enable-background:new 0 0 512.003 512.003;" xml:space="preserve">
<path style="fill:#57565C;" d="M460.473,87.121H51.248c-28.214,0-51.168,22.954-51.168,51.168v235.425
	c0,28.214,22.954,51.168,51.168,51.168h409.225c28.214,0,51.168-22.954,51.168-51.168V138.289
	C511.642,110.075,488.687,87.121,460.473,87.121z"/>
<path style="fill:#302F33;" d="M460.473,87.121H255.564v337.762h204.909c28.214,0,51.168-22.954,51.168-51.168V138.29
	C511.642,110.075,488.687,87.121,460.473,87.121z"/>
<rect y="147.047" style="fill:#F7603E;" width="512.003" height="80.052"/>
<rect x="255.561" y="147.047" style="fill:#B82400;" width="256.431" height="80.052"/>
<g>
	<path style="fill:#838287;" d="M230.342,386.783H55.619c-9.39,0-17.002-7.612-17.002-17.002c0-9.389,7.612-17.002,17.002-17.002
		h174.724c9.39,0,17.002,7.612,17.002,17.002C247.345,379.171,239.732,386.783,230.342,386.783z"/>
	<path style="fill:#838287;" d="M179.724,327.842H55.619c-9.39,0-17.002-7.612-17.002-17.002c0-9.39,7.612-17.002,17.002-17.002
		h124.105c9.39,0,17.002,7.612,17.002,17.002C196.726,320.229,189.113,327.842,179.724,327.842z"/>
</g>
<path style="fill:#FAE246;" d="M372.864,298.72c-5.161-2.408-10.914-3.76-16.986-3.76c-22.223,0-40.238,18.015-40.238,40.238
	s18.015,40.238,40.238,40.238c6.071,0,11.824-1.353,16.986-3.76c-6.11-10.782-9.618-23.224-9.618-36.478
	C363.245,321.945,366.753,309.502,372.864,298.72z"/>
<circle style="fill:#BF2717;" cx="437.487" cy="335.202" r="40.238"/>
<rect y="227.1" style="fill:#302F33;" width="511.646" height="22.525"/>
<g>
</g>
<g>
</g>
<g>
</g>
<g>
</g>
<g>
</g>
<g>
</g>
<g>
</g>
<g>
</g>
<g>
</g>
<g>
</g>
<g>
</g>
<g>
</g>
<g>
</g>
<g>
</g>
<g>
</g>
</svg>
