<?xml version="1.0" encoding="iso-8859-1"?>
<!-- Generator: Adobe Illustrator 19.0.0, SVG Export Plug-In . SVG Version: 6.00 Build 0)  -->
<svg version="1.1" id="Layer_1" xmlns="http://www.w3.org/2000/svg" xmlns:xlink="http://www.w3.org/1999/xlink" x="0px" y="0px"
	 viewBox="0 0 512.001 512.001" style="enable-background:new 0 0 512.001 512.001;" xml:space="preserve">
<path style="fill:#CEE8FA;" d="M205.527,206.21l50.019-30.636h0.913l50.019,30.636l28.136-51.269l23.424,1.627
	c-6.176-51.327-49.799-90.431-102.034-90.431l0,0c-52.235,0-95.857,39.104-102.034,90.431l23.424-1.627L205.527,206.21z"/>
<g>
	<path style="fill:#2D527C;" d="M240.054,456.095c-17.069,0-32.878-6.876-44.516-19.363c-11.638-12.488-17.385-28.741-16.185-45.766
		l6.292-89.31c0.544-7.701,7.216-13.504,14.925-12.959c7.7,0.542,13.501,7.223,12.959,14.924l-6.292,89.312
		c-0.65,9.205,2.457,17.992,8.749,24.742c6.292,6.751,14.839,10.468,24.067,10.468c7.718,0,13.976,6.257,13.976,13.976
		S247.773,456.095,240.054,456.095z"/>
	<path style="fill:#2D527C;" d="M388.417,387.037l-11.156-158.342c-0.544-7.701-7.229-13.517-14.925-12.959
		c-7.7,0.542-13.501,7.224-12.959,14.924l11.156,158.344c1.751,24.847-6.637,48.566-23.62,66.787
		c-16.981,18.222-40.053,28.257-64.962,28.257h-31.895c-24.909,0-47.979-10.035-64.962-28.256
		c-16.981-18.222-25.37-41.942-23.619-66.789l15.454-219.324l2.516-0.175l23.834,43.43c1.838,3.35,4.97,5.802,8.664,6.784
		c3.693,0.983,7.628,0.408,10.889-1.589l43.174-26.443l43.176,26.443c2.217,1.359,4.746,2.059,7.3,2.059
		c1.201,0,2.408-0.155,3.588-0.468c3.695-0.981,6.826-3.433,8.664-6.784l23.834-43.43l14.5,1.005
		c0.334,0.024,0.65,0.022,0.999,0.034c7.718-0.001,13.974-6.259,13.974-13.976c0-0.903-0.085-1.783-0.249-2.639
		c-6.875-53.413-49.377-94.613-101.814-100.906V13.976C269.977,6.257,263.718,0,256.001,0s-13.976,6.257-13.976,13.976v39.049
		c-52.752,6.331-95.45,47.992-101.935,101.874c0,0.006,0,0.011-0.001,0.015c-0.233,1.937-0.422,3.885-0.556,5.796l-15.947,226.327
		c-2.268,32.196,9.051,64.202,31.057,87.812c22.004,23.61,53.135,37.152,85.409,37.152h31.895c32.276,0,63.407-13.542,85.411-37.152
		C379.366,451.238,390.685,419.232,388.417,387.037z M256.002,80.112c39.012,0,72.74,25.356,84.428,61.222l-4.85-0.337
		c-5.456-0.373-10.6,2.442-13.222,7.219l-21.083,38.418l-37.52-22.98c-2.196-1.345-4.723-2.057-7.3-2.057h-0.913
		c-2.577,0-5.103,0.713-7.301,2.059l-37.517,22.979l-21.083-38.418c-2.622-4.779-7.744-7.591-13.222-7.219l-4.851,0.337
		C183.261,105.468,216.989,80.112,256.002,80.112z"/>
</g>
<g>
</g>
<g>
</g>
<g>
</g>
<g>
</g>
<g>
</g>
<g>
</g>
<g>
</g>
<g>
</g>
<g>
</g>
<g>
</g>
<g>
</g>
<g>
</g>
<g>
</g>
<g>
</g>
<g>
</g>
</svg>
