<?xml version="1.0" encoding="iso-8859-1"?>
<!-- Generator: Adobe Illustrator 18.0.0, SVG Export Plug-In . SVG Version: 6.00 Build 0)  -->
<!DOCTYPE svg PUBLIC "-//W3C//DTD SVG 1.1//EN" "http://www.w3.org/Graphics/SVG/1.1/DTD/svg11.dtd">
<svg version="1.1" id="Capa_1" xmlns="http://www.w3.org/2000/svg" xmlns:xlink="http://www.w3.org/1999/xlink" x="0px" y="0px"
	 viewBox="0 0 57 57" style="enable-background:new 0 0 57 57;" xml:space="preserve">
<g>
	<path style="fill:#FED070;" d="M28,28.5L47.799,8.701c-10.935-10.935-28.663-10.935-39.598,0s-10.935,28.663,0,39.598
		s28.663,10.935,39.598,0L28,28.5z"/>
	<path style="fill:#FAF8D2;" d="M28,28.5l16.971-16.971c-9.373-9.373-24.569-9.373-33.941,0s-9.373,24.569,0,33.941
		s24.569,9.373,33.941,0L28,28.5z"/>
	<path style="fill:#FED070;" d="M33.635,28.277L50.77,43.5c8.307-7.057,8.307-22.105,0-29.162c-0.098-0.083-0.2-0.16-0.299-0.241
		L33.635,28.277z"/>
	<path style="fill:#FAF8D2;" d="M33.635,28.277l14.306,12.82c6.745-5.73,6.745-18.626,0-24.356
		c-0.098-0.083-0.207-0.153-0.306-0.235L33.635,28.277z"/>
	<g>
		<circle style="fill:#D79C8C;" cx="47" cy="32.5" r="3"/>
		<path style="fill:#CD6E61;" d="M47,36.5c-2.206,0-4-1.794-4-4s1.794-4,4-4s4,1.794,4,4S49.206,36.5,47,36.5z M47,30.5
			c-1.103,0-2,0.897-2,2s0.897,2,2,2s2-0.897,2-2S48.103,30.5,47,30.5z"/>
	</g>
	<g>
		<circle style="fill:#D79C8C;" cx="32" cy="43.5" r="3"/>
		<path style="fill:#CD6E61;" d="M32,47.5c-2.206,0-4-1.794-4-4s1.794-4,4-4s4,1.794,4,4S34.206,47.5,32,47.5z M32,41.5
			c-1.103,0-2,0.897-2,2s0.897,2,2,2s2-0.897,2-2S33.103,41.5,32,41.5z"/>
	</g>
	<g>
		<circle style="fill:#D79C8C;" cx="18" cy="40.5" r="3"/>
		<path style="fill:#CD6E61;" d="M18,44.5c-2.206,0-4-1.794-4-4s1.794-4,4-4s4,1.794,4,4S20.206,44.5,18,44.5z M18,38.5
			c-1.103,0-2,0.897-2,2s0.897,2,2,2s2-0.897,2-2S19.103,38.5,18,38.5z"/>
	</g>
	<g>
		<circle style="fill:#D79C8C;" cx="11" cy="29.5" r="3"/>
		<path style="fill:#CD6E61;" d="M11,33.5c-2.206,0-4-1.794-4-4s1.794-4,4-4s4,1.794,4,4S13.206,33.5,11,33.5z M11,27.5
			c-1.103,0-2,0.897-2,2s0.897,2,2,2s2-0.897,2-2S12.103,27.5,11,27.5z"/>
	</g>
	<g>
		<circle style="fill:#D79C8C;" cx="15" cy="16.5" r="3"/>
		<path style="fill:#CD6E61;" d="M15,20.5c-2.206,0-4-1.794-4-4s1.794-4,4-4s4,1.794,4,4S17.206,20.5,15,20.5z M15,14.5
			c-1.103,0-2,0.897-2,2s0.897,2,2,2s2-0.897,2-2S16.103,14.5,15,14.5z"/>
	</g>
	<g>
		<circle style="fill:#D79C8C;" cx="27" cy="11.5" r="3"/>
		<path style="fill:#CD6E61;" d="M27,15.5c-2.206,0-4-1.794-4-4s1.794-4,4-4s4,1.794,4,4S29.206,15.5,27,15.5z M27,9.5
			c-1.103,0-2,0.897-2,2s0.897,2,2,2s2-0.897,2-2S28.103,9.5,27,9.5z"/>
	</g>
	<path style="fill:#E22F37;" d="M47,27.5c-0.552,0-1-0.447-1-1c0-2.206,1.794-4,4-4c0.552,0,1,0.447,1,1s-0.448,1-1,1
		c-1.103,0-2,0.897-2,2C48,27.053,47.552,27.5,47,27.5z"/>
	<path style="fill:#A4E869;" d="M15,25.5c-0.552,0-1-0.447-1-1c0-2.206,1.794-4,4-4c0.552,0,1,0.447,1,1s-0.448,1-1,1
		c-1.103,0-2,0.897-2,2C16,25.053,15.552,25.5,15,25.5z"/>
	<path style="fill:#ED7161;" d="M24.854,49.092c-0.2,0-0.402-0.06-0.578-0.185c-0.451-0.319-0.557-0.943-0.237-1.395
		c0.638-0.899,0.426-2.15-0.474-2.789c-0.45-0.319-0.556-0.944-0.236-1.395s0.944-0.557,1.395-0.236
		c1.798,1.277,2.223,3.779,0.946,5.578C25.476,48.945,25.167,49.092,24.854,49.092z"/>
	<path style="fill:#F9D70B;" d="M23,25.5c-0.552,0-1-0.447-1-1c0-1.24,1.009-2.25,2.25-2.25c0.138,0,0.25-0.112,0.25-0.25
		c0-1.24,1.009-2.25,2.25-2.25c0.138,0,0.25-0.112,0.25-0.25c0-0.553,0.448-1,1-1s1,0.447,1,1c0,1.24-1.009,2.25-2.25,2.25
		c-0.138,0-0.25,0.112-0.25,0.25c0,1.24-1.009,2.25-2.25,2.25c-0.138,0-0.25,0.112-0.25,0.25C24,25.053,23.552,25.5,23,25.5z"/>
	<path style="fill:#659C35;" d="M24.294,33.097c-0.199,0-0.398-0.026-0.595-0.08c-0.58-0.158-1.063-0.533-1.362-1.056
		c-0.069-0.119-0.221-0.162-0.341-0.093c-1.077,0.616-2.454,0.24-3.07-0.837c-0.043-0.075-0.106-0.105-0.151-0.118
		c-0.045-0.013-0.115-0.019-0.19,0.024c-0.48,0.275-1.09,0.108-1.364-0.372c-0.274-0.479-0.107-1.091,0.372-1.364
		c0.522-0.298,1.128-0.376,1.708-0.218s1.063,0.533,1.362,1.056c0.068,0.118,0.221,0.16,0.341,0.093
		c1.076-0.618,2.454-0.24,3.07,0.837c0.043,0.075,0.106,0.105,0.151,0.118c0.045,0.012,0.116,0.019,0.19-0.024
		c0.482-0.274,1.091-0.106,1.364,0.372c0.274,0.479,0.107,1.091-0.372,1.364C25.062,32.996,24.681,33.097,24.294,33.097z"/>
	<path style="fill:#659C35;" d="M24.451,40.336c-0.068,0-0.137-0.007-0.207-0.021c-0.541-0.113-0.887-0.644-0.773-1.185
		c0.124-0.588,0.469-1.093,0.972-1.421c0.503-0.329,1.105-0.444,1.693-0.317c0.086,0.019,0.149-0.009,0.188-0.035
		c0.04-0.025,0.09-0.074,0.108-0.158c0.124-0.588,0.469-1.093,0.973-1.421c0.502-0.328,1.104-0.442,1.693-0.316
		c0.13,0.027,0.267-0.059,0.296-0.193c0.114-0.54,0.644-0.883,1.185-0.772c0.54,0.114,0.886,0.645,0.772,1.185
		c-0.255,1.213-1.452,1.992-2.665,1.738c-0.084-0.017-0.149,0.009-0.189,0.035c-0.039,0.025-0.09,0.073-0.107,0.157
		c-0.124,0.589-0.469,1.094-0.973,1.422c-0.503,0.329-1.107,0.44-1.693,0.316c-0.083-0.018-0.148,0.009-0.188,0.035
		c-0.04,0.025-0.09,0.074-0.108,0.158C25.329,40.013,24.914,40.336,24.451,40.336z"/>
	<path style="fill:#CD6E61;" d="M39,13.5c-1.657,0-3,1.343-3,3c0,1.085,0.582,2.028,1.446,2.554l4.109-4.109
		C41.028,14.082,40.085,13.5,39,13.5z"/>
	<path style="fill:#CD6E61;" d="M43,24.5c1.657,0,3-1.343,3-3c0-1.041-0.531-1.957-1.336-2.495l-4.406,3.704
		C40.723,23.762,41.774,24.5,43,24.5z"/>
</g>
<g>
</g>
<g>
</g>
<g>
</g>
<g>
</g>
<g>
</g>
<g>
</g>
<g>
</g>
<g>
</g>
<g>
</g>
<g>
</g>
<g>
</g>
<g>
</g>
<g>
</g>
<g>
</g>
<g>
</g>
</svg>
