<?xml version="1.0" encoding="iso-8859-1"?>
<!-- Generator: Adobe Illustrator 19.0.0, SVG Export Plug-In . SVG Version: 6.00 Build 0)  -->
<svg version="1.1" id="Layer_1" xmlns="http://www.w3.org/2000/svg" xmlns:xlink="http://www.w3.org/1999/xlink" x="0px" y="0px"
	 viewBox="0 0 512.002 512.002" style="enable-background:new 0 0 512.002 512.002;" xml:space="preserve">
<circle style="fill:#FD8469;" cx="256.001" cy="256" r="256"/>
<path style="fill:#FC6F58;" d="M508.886,295.986l-174.59-174.59l-58.47,82.313L158.6,428.678l82.906,82.906
	c4.799,0.267,9.63,0.417,14.495,0.417C383.782,512,489.687,418.376,508.886,295.986z"/>
<path style="fill:#FFFFFF;" d="M396.347,193.876l-55.92-55.92c-2.357-2.357-6.175-2.357-8.532,0c-2.357,2.355-2.357,6.177,0,8.532
	l34.004,34.004v47.926c0,1.602,0.636,3.134,1.767,4.267l22.799,22.799v113.004c0,4.991-4.06,9.051-9.051,9.051
	c-4.991,0-9.051-4.06-9.051-9.051v-90.505c0-11.645-9.473-21.118-21.118-21.118h-15.084c-3.332,0-6.034,2.701-6.034,6.034
	c0,3.332,2.701,6.034,6.034,6.034h15.084c4.991,0,9.051,4.06,9.051,9.051v90.505c0,11.645,9.473,21.118,21.118,21.118
	s21.118-9.473,21.118-21.118V208.808C402.533,203.167,400.337,197.863,396.347,193.876z M377.967,225.918v-33.359l9.849,9.849
	c1.708,1.708,2.65,3.982,2.65,6.399v29.61L377.967,225.918z"/>
<path style="fill:#324A5E;" d="M341.334,426.667H170.668V138.774c0-13.805,11.192-24.997,24.997-24.997h120.673
	c13.805,0,24.997,11.192,24.997,24.997V426.667z"/>
<path style="fill:#2B3B4E;" d="M341.334,138.774c0-13.805-11.192-24.997-24.997-24.997h-60.337v312.889h85.333V138.774z"/>
<path style="fill:#84DBFF;" d="M202.848,132.741h106.308c7.775,0,14.079,6.303,14.079,14.079v28.732
	c0,7.775-6.303,14.079-14.079,14.079H202.848c-7.775,0-14.079-6.303-14.079-14.079V146.82
	C188.769,139.043,195.071,132.741,202.848,132.741z"/>
<path style="fill:#31BAFD;" d="M309.156,132.741h-53.155v56.889h53.153c7.775,0,14.079-6.303,14.079-14.079V146.82
	C323.233,139.043,316.931,132.741,309.156,132.741z"/>
<path style="fill:#2B3B4E;" d="M221.488,212.952h69.027c3.313,0,5.999,2.686,5.999,5.999v5.142c0,3.313-2.686,5.999-5.999,5.999
	h-69.027c-3.313,0-5.999-2.686-5.999-5.999v-5.142C215.489,215.638,218.175,212.952,221.488,212.952z"/>
<path style="fill:#212F3D;" d="M290.515,212.952h-34.514v17.139h34.513c3.313,0,5.999-2.686,5.999-5.997v-5.142
	C296.513,215.638,293.827,212.952,290.515,212.952z"/>
<circle style="fill:#E6F3FF;" cx="256.001" cy="316.975" r="49.778"/>
<path style="fill:#CFDBE6;" d="M305.779,316.983c0-27.491-22.287-49.778-49.778-49.778v99.556
	C283.492,366.761,305.779,344.474,305.779,316.983z"/>
<path style="fill:#FFD15D;" d="M236.176,324.418c0-10.949,19.825-34.694,19.825-34.694s19.825,23.745,19.825,34.694
	s-8.876,19.825-19.825,19.825S236.176,335.367,236.176,324.418z"/>
<path style="fill:#F9B54C;" d="M275.826,324.418c0-10.947-19.813-34.68-19.825-34.694v54.519
	C266.949,344.243,275.826,335.367,275.826,324.418z"/>
<rect x="158.6" y="396.205" style="fill:#2B3B4E;" width="194.801" height="32.466"/>
<rect x="256.001" y="396.205" style="fill:#223242;" width="97.401" height="32.466"/>
<g>
</g>
<g>
</g>
<g>
</g>
<g>
</g>
<g>
</g>
<g>
</g>
<g>
</g>
<g>
</g>
<g>
</g>
<g>
</g>
<g>
</g>
<g>
</g>
<g>
</g>
<g>
</g>
<g>
</g>
</svg>
