<?xml version="1.0" encoding="iso-8859-1"?>
<!-- Generator: Adobe Illustrator 19.0.0, SVG Export Plug-In . SVG Version: 6.00 Build 0)  -->
<svg version="1.1" id="Layer_1" xmlns="http://www.w3.org/2000/svg" xmlns:xlink="http://www.w3.org/1999/xlink" x="0px" y="0px"
	 viewBox="0 0 512 512" style="enable-background:new 0 0 512 512;" xml:space="preserve">
<path style="fill:#FD6A33;" d="M384.645,490.146c-25.876-29.497-60.9-49.131-99.25-55.782v-75.749c0-4.427-3.588-8.017-8.017-8.017
	h-42.756c-4.428,0-8.017,3.589-8.017,8.017v75.749c-38.349,6.652-73.374,26.285-99.25,55.782c-2.076,2.365-2.575,5.727-1.276,8.594
	c1.3,2.867,4.156,4.708,7.303,4.708h245.236c3.147,0,6.003-1.842,7.303-4.708C387.22,495.874,386.72,492.512,384.645,490.146z"/>
<g>
	<path style="fill:#F0353D;" d="M439.85,175.299c-39.784,0-72.15,32.366-72.15,72.15s32.366,72.15,72.15,72.15
		S512,287.234,512,247.449S479.634,175.299,439.85,175.299z M439.85,269.362c-12.083,0-21.912-9.83-21.912-21.912
		s9.83-21.912,21.912-21.912s21.912,9.83,21.912,21.912S451.932,269.362,439.85,269.362z"/>
	<path style="fill:#F0353D;" d="M72.15,175.299c-39.784,0-72.15,32.366-72.15,72.15s32.366,72.15,72.15,72.15
		s72.15-32.366,72.15-72.15S111.935,175.299,72.15,175.299z M72.15,269.362c-12.083,0-21.912-9.83-21.912-21.912
		s9.83-21.912,21.912-21.912s21.912,9.83,21.912,21.912S84.233,269.362,72.15,269.362z"/>
</g>
<path style="fill:#FF8C29;" d="M418.472,98.339H93.528c-4.428,0-8.017,3.589-8.017,8.017v89.787
	c0,45.697,17.691,88.554,49.814,120.676c32.121,32.122,74.979,49.813,120.675,49.813s88.554-17.69,120.675-49.813
	c32.122-32.122,49.814-74.979,49.814-120.676v-89.787C426.489,101.928,422.9,98.339,418.472,98.339z"/>
<g>
	<path style="fill:#FFFFFF;" d="M324.417,315.399c-2.694,0-5.323-1.357-6.837-3.82c-2.318-3.772-1.139-8.709,2.633-11.027
		c8.103-4.98,15.656-10.951,22.451-17.746c3.294-3.293,6.425-6.799,9.305-10.418c2.756-3.465,7.801-4.038,11.264-1.283
		c3.465,2.757,4.039,7.8,1.283,11.264c-3.256,4.093-6.793,8.054-10.515,11.775c-7.68,7.68-16.224,14.431-25.394,20.067
		C327.297,315.015,325.849,315.399,324.417,315.399z"/>
	<path style="fill:#FFFFFF;" d="M376.059,255.468c-1.044,0-2.107-0.205-3.13-0.639c-4.076-1.731-5.977-6.436-4.248-10.513
		c6.44-15.171,9.706-31.38,9.706-48.174c0-4.427,3.588-8.017,8.017-8.017c4.428,0,8.017,3.589,8.017,8.017
		c0,18.959-3.694,37.276-10.98,54.44C382.147,253.635,379.179,255.468,376.059,255.468z"/>
</g>
<path style="fill:#FFD1A9;" d="M444.125,98.339H67.875c-4.428,0-8.017,3.589-8.017,8.017v47.031c0,4.427,3.588,8.017,8.017,8.017
	h376.251c4.428,0,8.017-3.589,8.017-8.017v-47.031C452.142,101.928,448.554,98.339,444.125,98.339z"/>
<path style="fill:#F0353D;" d="M234.622,350.598c-4.428,0-8.017,3.589-8.017,8.017v75.749c-38.349,6.652-73.374,26.285-99.25,55.782
	c-2.076,2.365-2.575,5.727-1.276,8.594c1.3,2.867,4.156,4.708,7.303,4.708H256V350.598H234.622z"/>
<path style="fill:#FD6A33;" d="M93.528,98.339c-4.428,0-8.017,3.589-8.017,8.017v89.787c0,45.697,17.691,88.554,49.814,120.676
	c32.121,32.122,74.979,49.813,120.675,49.813V98.339H93.528z"/>
<path style="fill:#FF8C29;" d="M67.875,98.339c-4.428,0-8.017,3.589-8.017,8.017v47.031c0,4.427,3.588,8.017,8.017,8.017H256V98.339
	H67.875z"/>
<path style="fill:#FFFFFF;" d="M331.978,231.981c-1.123-3.218-4.159-5.375-7.569-5.375h-45.692l-15.183-41.754
	c-1.152-3.168-4.163-5.277-7.535-5.277s-6.382,2.109-7.535,5.277l-15.183,41.754h-45.692c-3.409,0-6.445,2.157-7.569,5.375
	c-1.123,3.219-0.088,6.797,2.582,8.918l38.617,30.68l-11.435,41.933c-0.909,3.329,0.416,6.866,3.287,8.779
	c2.871,1.915,6.646,1.778,9.369-0.342l33.558-26.1l33.559,26.1c1.443,1.122,3.181,1.689,4.922,1.689
	c1.546,0,3.095-0.446,4.446-1.347c2.872-1.914,4.195-5.45,3.287-8.779l-11.435-41.933l38.617-30.68
	C332.066,238.779,333.101,235.201,331.978,231.981z"/>
<path style="fill:#FFD1A9;" d="M248.465,184.852l-15.183,41.754h-45.692c-3.409,0-6.445,2.157-7.569,5.375
	c-1.123,3.219-0.088,6.797,2.582,8.918l38.617,30.68l-11.435,41.933c-0.909,3.329,0.416,6.866,3.287,8.779
	c2.871,1.915,6.646,1.778,9.369-0.342l33.558-26.1V179.575C252.63,179.575,249.618,181.684,248.465,184.852z"/>
<g>
	<path style="fill:#0295AA;" d="M166.213,29.93h-13.361V16.568c0-4.427-3.588-8.017-8.017-8.017c-4.428,0-8.017,3.589-8.017,8.017
		V29.93h-13.361c-4.428,0-8.017,3.589-8.017,8.017s3.588,8.017,8.017,8.017h13.361v13.361c0,4.427,3.588,8.017,8.017,8.017
		c4.428,0,8.017-3.589,8.017-8.017V45.963h13.361c4.428,0,8.017-3.589,8.017-8.017S170.641,29.93,166.213,29.93z"/>
	<path style="fill:#0295AA;" d="M397.094,29.93h-13.361V16.568c0-4.427-3.588-8.017-8.017-8.017c-4.428,0-8.017,3.589-8.017,8.017
		V29.93h-13.361c-4.428,0-8.017,3.589-8.017,8.017s3.588,8.017,8.017,8.017h13.361v13.361c0,4.427,3.588,8.017,8.017,8.017
		c4.428,0,8.017-3.589,8.017-8.017V45.963h13.361c4.428,0,8.017-3.589,8.017-8.017S401.522,29.93,397.094,29.93z"/>
	<path style="fill:#0295AA;" d="M277.378,29.93h-13.361V16.568c0-4.427-3.588-8.017-8.017-8.017c-4.428,0-8.017,3.589-8.017,8.017
		V29.93h-13.361c-4.428,0-8.017,3.589-8.017,8.017s3.588,8.017,8.017,8.017h13.361v13.361c0,4.427,3.588,8.017,8.017,8.017
		c4.428,0,8.017-3.589,8.017-8.017V45.963h13.361c4.428,0,8.017-3.589,8.017-8.017S281.806,29.93,277.378,29.93z"/>
</g>
<g>
</g>
<g>
</g>
<g>
</g>
<g>
</g>
<g>
</g>
<g>
</g>
<g>
</g>
<g>
</g>
<g>
</g>
<g>
</g>
<g>
</g>
<g>
</g>
<g>
</g>
<g>
</g>
<g>
</g>
</svg>
