<svg width="64" height="64" viewBox="0 0 64 64" fill="none" xmlns="http://www.w3.org/2000/svg">
<g clip-path="url(#clip0_123_2)">
<rect width="64" height="64" rx="8" fill="#171717"/>
<path d="M25.3725 48.45C23.9058 48.45 22.7558 48.05 21.9225 47.25C21.1225 46.4167 20.7225 45.2333 20.7225 43.7V17.5C20.7225 15.9667 21.1225 14.8 21.9225 14C22.7558 13.1667 23.9558 12.75 25.5225 12.75H42.1725C43.3725 12.75 44.2725 13.05 44.8725 13.65C45.4725 14.25 45.7725 15.1167 45.7725 16.25C45.7725 17.4167 45.4725 18.3167 44.8725 18.95C44.2725 19.55 43.3725 19.85 42.1725 19.85H29.9225V26.95H41.0725C42.2391 26.95 43.1225 27.25 43.7225 27.85C44.3558 28.45 44.6725 29.3167 44.6725 30.45C44.6725 31.6167 44.3558 32.5 43.7225 33.1C43.1225 33.7 42.2391 34 41.0725 34H29.9225V43.7C29.9225 46.8667 28.4058 48.45 25.3725 48.45Z" fill="#2872FF"/>
</g>
<defs>
<clipPath id="clip0_123_2">
<rect width="64" height="64" rx="8" fill="white"/>
</clipPath>
</defs>
</svg>
